<?xml version="1.0" standalone="no"?>
<!DOCTYPE svg PUBLIC "-//W3C//DTD SVG 20010904//EN"
 "http://www.w3.org/TR/2001/REC-SVG-20010904/DTD/svg10.dtd">
<svg version="1.0" xmlns="http://www.w3.org/2000/svg"
 width="792.000000pt" height="792.000000pt" viewBox="0 0 792.000000 792.000000"
 preserveAspectRatio="xMidYMid meet">
<metadata>
Created by potrace 1.14, written by Peter Selinger 2001-2017
</metadata>
<g transform="translate(0.000000,792.000000) scale(0.100000,-0.100000)"
fill="#000000" stroke="none">
<path d="M220 6663 c-99 -35 -172 -109 -204 -209 -15 -44 -16 -276 -14 -2514
l3 -2465 25 -50 c31 -64 91 -124 155 -155 l50 -25 3725 0 3725 0 50 25 c64 31
124 91 155 155 l25 50 0 2485 0 2485 -25 50 c-31 64 -91 124 -155 155 l-50 25
-3710 2 c-3354 2 -3714 1 -3755 -14z m2853 -2839 c-54 -60 -898 -834 -911
-834 -4 0 -43 38 -85 84 l-77 85 385 351 c213 194 385 355 383 360 -2 5 -157
149 -346 320 l-344 312 34 37 c18 20 55 59 82 88 l49 51 439 -400 439 -399
-48 -55z m2047 -784 l0 -120 -800 0 -800 0 0 120 0 120 800 0 800 0 0 -120z"/>
</g>
</svg>
